<svg width="23" height="16" viewBox="0 0 23 16" fill="none" xmlns="http://www.w3.org/2000/svg">
<path fill-rule="evenodd" clip-rule="evenodd" d="M2.82467 0.75C3.15067 0.749757 3.46788 0.855724 3.72828 1.05187C3.9888 1.24811 4.17826 1.52391 4.26796 1.8375L5.02927 4.5H21.2844C21.5197 4.5 21.7414 4.61047 21.8831 4.79835C22.0249 4.98624 22.0702 5.22975 22.0055 5.45604L19.5314 14.1153C19.5313 14.1159 19.5311 14.1164 19.531 14.1169C19.3981 14.5888 19.114 15.0041 18.7224 15.2991C18.3309 15.594 17.8536 15.7523 17.3636 15.75H8.38639C7.89637 15.7523 7.41907 15.594 7.02762 15.2991C6.63606 15.0042 6.35205 14.589 6.21909 14.1172C6.21891 14.1165 6.21874 14.1159 6.21857 14.1153L2.82579 2.25L1.25 2.25C0.835786 2.25 0.5 1.91421 0.5 1.5C0.5 1.08579 0.835786 0.75 1.25 0.75H2.82467ZM5.45818 6L7.66172 13.7063L7.66268 13.7097C7.70656 13.8659 7.80051 14.0034 7.93011 14.101C8.05971 14.1986 8.21777 14.251 8.38002 14.25L8.38437 14.25H17.3656L17.37 14.25C17.5322 14.251 17.6903 14.1986 17.8199 14.101C17.9495 14.0034 18.0434 13.8659 18.0873 13.7097L18.0882 13.7065L20.2901 6H5.45818Z" fill="white"/>
</svg>
